<svg version="1.1" id="Layer_1" xmlns="http://www.w3.org/2000/svg" xmlns:xlink="http://www.w3.org/1999/xlink" x="0px" y="0px"
	 width="100%" viewBox="0 0 75 77" enable-background="new 0 0 75 77" xml:space="preserve">
<path fill="#FEFEFE" opacity="1.000000" stroke="none" 
	d="
M42.000000,78.000000 
	C28.000002,78.000000 14.500005,78.000000 1.000005,78.000000 
	C1.000004,52.333340 1.000004,26.666681 1.000002,1.000016 
	C25.999987,1.000010 50.999973,1.000010 75.999969,1.000005 
	C75.999985,26.666651 75.999985,52.333302 75.999992,77.999977 
	C64.833336,78.000000 53.666668,78.000000 42.000000,78.000000 
M33.957672,61.596436 
	C35.020435,62.652355 35.911217,64.123230 37.191662,64.653915 
	C38.630714,65.250343 40.421520,64.998062 42.059303,65.115005 
	C42.132820,63.345692 42.563820,61.487820 42.155087,59.837982 
	C41.879299,58.724789 40.449310,57.873108 39.483685,56.959339 
	C34.260014,52.016220 29.020144,47.090218 23.785856,42.158321 
	C24.099438,41.776711 24.413017,41.395100 24.726597,41.013489 
	C31.197231,41.013489 37.667870,41.013527 44.138504,41.013477 
	C50.469036,41.013424 56.799648,40.994888 63.130062,41.021824 
	C65.834206,41.033333 68.715446,40.583675 68.187531,37.286499 
	C67.966690,35.907211 65.162369,34.667946 63.308956,33.917522 
	C62.020687,33.395916 60.350910,33.816315 58.851574,33.816303 
	C47.436192,33.816231 36.020813,33.816261 23.283134,33.816261 
	C29.907019,27.221609 35.786175,21.653925 41.244839,15.700679 
	C42.380470,14.462154 41.958973,11.795861 42.255085,9.787562 
	C40.228283,10.124848 37.526978,9.746074 36.284721,10.916240 
	C28.527220,18.223576 21.148109,25.930517 13.529630,33.388607 
	C10.632851,36.224400 10.683586,38.508060 13.622989,41.335625 
	C20.345097,47.801960 26.857382,54.486416 33.957672,61.596436 
z"/>
<path fill="#1E1E20" opacity="1.000000" stroke="none" 
	d="
M33.706280,61.339363 
	C26.857382,54.486416 20.345097,47.801960 13.622989,41.335625 
	C10.683586,38.508060 10.632851,36.224400 13.529630,33.388607 
	C21.148109,25.930517 28.527220,18.223576 36.284721,10.916240 
	C37.526978,9.746074 40.228283,10.124848 42.255085,9.787561 
	C41.958973,11.795861 42.380470,14.462154 41.244839,15.700679 
	C35.786175,21.653925 29.907019,27.221609 23.283134,33.816261 
	C36.020813,33.816261 47.436192,33.816231 58.851574,33.816303 
	C60.350910,33.816315 62.020687,33.395916 63.308956,33.917522 
	C65.162369,34.667946 67.966690,35.907211 68.187531,37.286499 
	C68.715446,40.583675 65.834206,41.033333 63.130062,41.021824 
	C56.799648,40.994888 50.469036,41.013424 44.138504,41.013477 
	C37.667870,41.013527 31.197231,41.013489 24.726597,41.013489 
	C24.413017,41.395100 24.099438,41.776711 23.785856,42.158321 
	C29.020144,47.090218 34.260014,52.016220 39.483685,56.959339 
	C40.449310,57.873108 41.879299,58.724789 42.155087,59.837982 
	C42.563820,61.487820 42.132820,63.345692 42.059303,65.115005 
	C40.421520,64.998062 38.630714,65.250343 37.191662,64.653915 
	C35.911217,64.123230 35.020435,62.652355 33.706280,61.339363 
z"/>
</svg>