<svg width="10" height="10" viewBox="0 0 10 10" fill="none" xmlns="http://www.w3.org/2000/svg">
<path d="M4.62726 9.17143C4.62726 9.37864 4.79524 9.54661 5.00244 9.54661C5.20964 9.54661 5.37762 9.37864 5.37762 9.17143V8.3377C5.37762 8.1305 5.20964 7.96253 5.00244 7.96253C4.79524 7.96253 4.62726 8.1305 4.62726 8.3377V9.17143Z" fill="currentColor"/>
<path d="M4.62726 1.66789C4.62726 1.87509 4.79524 2.04307 5.00244 2.04307C5.20964 2.04307 5.37762 1.87509 5.37762 1.66789V0.834161C5.37762 0.626956 5.20964 0.458984 5.00244 0.458984C4.79524 0.458984 4.62726 0.626956 4.62726 0.834161V1.66789Z" fill="currentColor"/>
<path fill-rule="evenodd" clip-rule="evenodd" d="M2.75133 5.00162C2.75133 3.75839 3.75916 2.75055 5.00239 2.75055C6.24562 2.75055 7.25345 3.75839 7.25345 5.00162C7.25345 6.24484 6.24562 7.25268 5.00239 7.25268C3.75916 7.25268 2.75133 6.24484 2.75133 5.00162ZM5.00239 3.50091C4.17357 3.50091 3.50168 4.1728 3.50168 5.00162C3.50168 5.83043 4.17357 6.50232 5.00239 6.50232C5.83121 6.50232 6.5031 5.83043 6.5031 5.00162C6.5031 4.1728 5.83121 3.50091 5.00239 3.50091Z" fill="currentColor"/>
<path d="M0.458618 5.00273C0.458618 4.79553 0.626591 4.62756 0.833795 4.62756H1.66752C1.87473 4.62756 2.0427 4.79553 2.0427 5.00273C2.0427 5.20994 1.87473 5.37791 1.66752 5.37791H0.833795C0.626591 5.37791 0.458618 5.20994 0.458618 5.00273Z" fill="currentColor"/>
<path d="M7.96216 5.00273C7.96216 4.79553 8.13013 4.62756 8.33734 4.62756H9.17106C9.37827 4.62756 9.54624 4.79553 9.54624 5.00273C9.54624 5.20994 9.37827 5.37791 9.17106 5.37791H8.33734C8.13013 5.37791 7.96216 5.20994 7.96216 5.00273Z" fill="currentColor"/>
<path d="M1.78948 8.21572C1.64296 8.0692 1.64296 7.83165 1.78948 7.68513L2.37901 7.0956C2.52553 6.94908 2.76308 6.94908 2.90959 7.0956C3.05611 7.24212 3.05611 7.47967 2.90959 7.62618L2.32006 8.21572C2.17354 8.36223 1.936 8.36223 1.78948 8.21572Z" fill="currentColor"/>
<path d="M7.09529 2.90991C6.94877 2.76339 6.94877 2.52585 7.09529 2.37933L7.68482 1.7898C7.83134 1.64328 8.06888 1.64328 8.2154 1.7898C8.36192 1.93631 8.36192 2.17386 8.2154 2.32038L7.62587 2.90991C7.47935 3.05643 7.2418 3.05643 7.09529 2.90991Z" fill="currentColor"/>
<path d="M7.68477 8.21572C7.83128 8.36223 8.06883 8.36223 8.21535 8.21572C8.36186 8.0692 8.36186 7.83165 8.21535 7.68513L7.62581 7.0956C7.4793 6.94908 7.24175 6.94908 7.09523 7.0956C6.94872 7.24212 6.94872 7.47967 7.09523 7.62618L7.68477 8.21572Z" fill="currentColor"/>
<path d="M2.37896 2.90991C2.52548 3.05643 2.76303 3.05643 2.90954 2.90991C3.05606 2.76339 3.05606 2.52585 2.90954 2.37933L2.32001 1.7898C2.17349 1.64328 1.93594 1.64328 1.78943 1.7898C1.64291 1.93631 1.64291 2.17386 1.78943 2.32038L2.37896 2.90991Z" fill="currentColor"/>
</svg>